HIERARCHY
ROOT Hips
{
	OFFSET 0.000000 0.000000 0.000000 
	CHANNELS 6 Xposition Yposition Zposition Zrotation Yrotation Xrotation
	JOINT LeftUpLeg
	{
		OFFSET 1.363060 -1.794630 0.839290 
		CHANNELS 3 Zrotation Yrotation Xrotation
		JOINT LeftLeg
		{
			OFFSET 2.448110 -6.726130 0.000000 
			CHANNELS 3 Zrotation Yrotation Xrotation
			JOINT LeftFoot
			{
				OFFSET 2.562200 -7.039590 0.000000 
				CHANNELS 3 Zrotation Yrotation Xrotation
				JOINT LeftToeBase
				{
					OFFSET 0.157640 -0.433110 2.322550 
					CHANNELS 3 Zrotation Yrotation Xrotation
					End Site
					{
						OFFSET 0.000000 0.000000 0.000000 
					}
				}
			}
		}
	}
	JOINT RightUpLeg
	{
		OFFSET -1.305520 -1.794630 0.839290 
		CHANNELS 3 Zrotation Yrotation Xrotation
		JOINT RightLeg
		{
			OFFSET -2.542530 -6.985550 0.000000 
			CHANNELS 3 Zrotation Yrotation Xrotation
			JOINT RightFoot
			{
				OFFSET -2.568260 -7.056230 0.000000 
				CHANNELS 3 Zrotation Yrotation Xrotation
				JOINT RightToeBase
				{
					OFFSET -0.164730 -0.452590 2.363150 
					CHANNELS 3 Zrotation Yrotation Xrotation
					End Site
					{
						OFFSET 0.000000 0.000000 0.000000 
					}
				}
			}
		}
	}
	JOINT Spine
	{
		OFFSET 0.028270 2.035590 -0.193380 
		CHANNELS 3 Zrotation Yrotation Xrotation
		JOINT Spine1
		{
			OFFSET 0.056720 2.048850 -0.042750 
			CHANNELS 3 Zrotation Yrotation Xrotation
			JOINT Neck1
			{
				OFFSET -0.054170 1.746240 0.172020 
				CHANNELS 3 Zrotation Yrotation Xrotation
				JOINT Head
				{
					OFFSET 0.104070 1.761360 -0.123970 
					CHANNELS 3 Zrotation Yrotation Xrotation
					End Site
					{
						OFFSET 0.000000 0.000000 0.000000 
					}
				}
			}
			JOINT LeftArm
			{
				OFFSET 3.362410 1.200890 -0.311210 
				CHANNELS 3 Zrotation Yrotation Xrotation
				JOINT LeftForeArm
				{
					OFFSET 4.983000 -0.000000 -0.000000 
					CHANNELS 3 Zrotation Yrotation Xrotation
					JOINT LeftHand
					{
						OFFSET 3.483560 -0.000000 -0.000000 
						CHANNELS 3 Zrotation Yrotation Xrotation
						JOINT LeftHandIndex1
						{
							OFFSET 0.715260 -0.000000 -0.000000 
							CHANNELS 3 Zrotation Yrotation Xrotation
							End Site
							{
								OFFSET 0.000000 0.000000 0.000000 
							}
						}
					}
				}
			}
			JOINT RightArm
			{
				OFFSET -3.136600 1.374050 -0.404650 
				CHANNELS 3 Zrotation Yrotation Xrotation
				JOINT RightForeArm
				{
					OFFSET -5.241900 -0.000000 -0.000000 
					CHANNELS 3 Zrotation Yrotation Xrotation
					JOINT RightHand
					{
						OFFSET -3.444170 -0.000000 -0.000000 
						CHANNELS 3 Zrotation Yrotation Xrotation
						JOINT RightHandIndex1
						{
							OFFSET -0.622530 -0.000000 -0.000000 
							CHANNELS 3 Zrotation Yrotation Xrotation
							End Site
							{
								OFFSET 0.000000 0.000000 0.000000 
							}
						}
					}
				}
			}
		}
	}
}
MOTION
Frames: 9
Frame Time: 0.041667
0.854187 18.393850 0.752136 169.491230 86.295794 -165.554601 -13.230609 -24.384831 -0.288708 -2.188422 0.731049 0.087823 -7.441657 26.254973 -4.068748 0.583600 -4.891700 -13.599800 17.166246 12.582281 -10.288963 1.213407 -5.746769 13.136735 6.043278 -21.973508 -8.590534 -0.423700 4.177700 -11.577100 -8.969920 -4.118805 -56.744010 4.448196 -0.539604 6.491856 8.834721 -5.180171 33.331889 3.616000 -1.617900 11.588500 -26.136829 1.208913 63.018740 136.543797 -52.161449 -101.650064 -1.077933 -2.142354 -39.650180 -7.125000 0.000000 0.000000 34.901748 -5.098827 65.375434 -129.045344 53.263620 -93.728185 -0.261090 2.150705 -1.100445 7.125000 0.000000 0.000000 
0.847667 18.393850 0.753585 168.682340 86.296510 -166.407757 -13.292684 -24.362550 -0.255195 -2.188247 0.727499 0.089690 -7.450453 26.285356 -4.032994 0.589000 -4.913800 -13.662900 17.127925 12.580715 -10.301397 1.210214 -5.765090 13.174988 6.039038 -21.963383 -8.580809 -0.425000 4.184000 -11.595000 -8.981140 -4.149181 -56.706513 4.476504 -0.573742 6.506087 8.818589 -5.155591 33.406071 3.610000 -1.604000 11.609800 -26.650764 0.731617 63.825059 136.421557 -52.216248 -101.552635 -1.053187 -2.116772 -39.370048 -7.125000 0.000000 0.000000 35.234059 -4.461709 66.077288 -128.810429 53.345977 -93.568853 -0.248746 2.155132 -1.024368 7.125000 0.000000 0.000000 
0.841146 18.393539 0.756173 168.811647 86.290727 -166.333806 -13.297463 -24.363682 -0.212497 -2.186888 0.729973 0.087120 -7.466515 26.346434 -3.950636 0.609500 -4.997100 -13.900200 17.155197 12.600582 -10.263901 1.207959 -5.771541 13.197494 6.047880 -21.991613 -8.604884 -0.422700 4.173000 -11.563700 -8.912413 -4.134453 -56.692237 4.460259 -0.592478 6.508856 8.687190 -5.117002 33.513014 3.564600 -1.595000 11.631300 -27.097007 0.271907 64.556215 136.299630 -52.281653 -101.435785 -0.994949 -2.080443 -38.941123 -7.125000 0.000000 0.000000 35.514818 -3.885723 66.882123 -128.921606 53.297144 -93.696881 -0.247840 2.139344 -1.026701 7.125000 0.000000 0.000000 
0.834729 18.392918 0.759071 169.997980 86.310320 -165.179857 -13.226036 -24.373017 -0.216043 -2.186824 0.737623 0.085795 -7.470968 26.358406 -3.994231 0.610300 -5.000200 -13.909200 17.240541 12.634117 -10.207946 1.207427 -5.761444 13.189593 6.061979 -22.033961 -8.620730 -0.424600 4.181900 -11.588900 -8.521073 -3.972163 -56.792611 4.317920 -0.587348 6.499568 8.555293 -5.064080 33.552190 3.527700 -1.585000 11.629900 -27.512462 -0.092134 65.170861 136.148888 -52.362771 -101.313501 -0.955719 -2.066279 -38.485722 -7.125000 0.000000 0.000000 35.756778 -3.341909 67.568068 -128.986745 53.264647 -93.782850 -0.253214 2.130871 -0.915338 7.125000 0.000000 0.000000 
0.827588 18.393436 0.760830 171.522673 86.334721 -163.672593 -13.125491 -24.382387 -0.247038 -2.186101 0.747019 0.081741 -7.480860 26.389645 -4.007793 0.602400 -4.968100 -13.817700 17.339209 12.589666 -10.190497 1.209452 -5.738523 13.151661 6.037842 -21.960315 -8.591291 -0.413000 4.125100 -11.428900 -8.132137 -3.802131 -56.908493 4.156004 -0.571051 6.473670 8.454989 -5.028243 33.585084 3.498900 -1.578400 11.634200 -27.894495 -0.482298 65.665507 135.936145 -52.462552 -101.172970 -0.955001 -2.056467 -38.060903 -7.125000 0.000000 0.000000 36.009159 -2.838736 68.120642 -128.866266 53.302200 -93.711520 -0.258008 2.136548 -0.822880 7.125000 0.000000 0.000000 
0.821274 18.395299 0.763107 172.590451 86.378167 -162.620920 -13.050439 -24.361367 -0.262458 -2.186467 0.753330 0.083851 -7.464141 26.332680 -4.068528 0.572700 -4.846400 -13.470900 17.405274 12.624716 -10.147229 1.211341 -5.717902 13.111197 6.045559 -21.982674 -8.557533 -0.404500 4.083100 -11.310700 -7.887644 -3.698833 -56.993502 4.050901 -0.561514 6.398918 8.375967 -4.986000 33.662883 3.476900 -1.562500 11.664700 -28.168485 -0.850142 66.120381 135.733907 -52.560622 -101.025078 -0.939978 -2.020724 -37.626608 -7.125000 0.000000 0.000000 36.235636 -2.337221 68.662945 -128.794672 53.320317 -93.681094 -0.263942 2.139086 -0.820159 7.125000 0.000000 0.000000 
0.816720 18.397679 0.764142 172.608256 86.393832 -162.622739 -13.050223 -24.344407 -0.254555 -2.187016 0.753178 0.086918 -7.451246 26.289029 -4.099314 0.542300 -4.718100 -13.106100 17.412308 12.591476 -10.138337 1.212483 -5.704877 13.070458 6.060929 -22.029925 -8.467393 -0.409900 4.110000 -11.386400 -7.779930 -3.672036 -57.034201 4.004196 -0.574849 6.338983 8.347665 -4.972012 33.745236 3.471600 -1.556700 11.703700 -28.397458 -1.195864 66.468637 135.471506 -52.692411 -100.831631 -0.907372 -2.003956 -37.237496 -7.125000 0.000000 0.000000 36.384492 -1.869632 69.213999 -128.815664 53.304470 -93.723898 -0.271614 2.136197 -0.895395 7.125000 0.000000 0.000000 
0.813822 18.395816 0.764867 172.396580 86.375831 -162.867380 -13.078996 -24.347724 -0.222462 -2.184136 0.754055 0.079442 -7.486108 26.420342 -3.903626 0.610400 -5.000500 -13.910100 17.414132 12.569999 -10.102517 1.213760 -5.695445 13.039472 6.077360 -22.081500 -8.413712 -0.430200 4.209200 -11.665900 -7.808891 -3.707082 -56.981961 4.019782 -0.604473 6.413603 8.279074 -4.977640 33.762308 3.442600 -1.566900 11.697800 -28.580720 -1.636359 66.683175 135.207191 -52.812627 -100.650565 -0.891239 -1.994815 -36.964888 -7.125000 0.000000 0.000000 36.468525 -1.376810 69.579887 -128.869021 53.278350 -93.786104 -0.270566 2.134021 -1.061669 7.125000 0.000000 0.000000 
0.809889 18.394988 0.766937 173.159696 86.372747 -162.123358 -13.025660 -24.355338 -0.222763 -2.182625 0.758834 0.075686 -7.496013 26.460273 -3.833006 0.619600 -5.037500 -14.015500 17.473904 12.586891 -10.070165 1.214787 -5.691303 13.043174 6.066771 -22.050532 -8.480781 -0.420000 4.159500 -11.525800 -7.596158 -3.636841 -56.996831 3.938153 -0.621089 6.499977 8.269629 -4.936542 33.747336 3.443600 -1.549600 11.674900 -28.711145 -2.029828 66.863041 134.977531 -52.916558 -100.490083 -0.881037 -1.969740 -36.781738 -7.125000 0.000000 0.000000 36.579796 -0.821678 69.877054 -128.840166 53.282119 -93.784599 -0.262476 2.132940 -1.330342 7.125000 0.000000 0.000000 
